<svg xmlns="http://www.w3.org/2000/svg" width="1040" height="660" viewBox="0 0 1040 660" role="img" aria-labelledby="title desc">
<title id="title">afterburnerr — здесь кто-то живёт</title>
<desc id="desc">An ink creature inhabits a paper README. Every twelve seconds it takes a repository from a pile, eats it, and spits out a tiny bug. A surreal animated profile prototype.</desc>
<defs>
<pattern id="paper" width="61" height="59" patternUnits="userSpaceOnUse"><path d="M3 11h1m13 24h1m24-18h1M8 48h1m43 4h1" stroke="#8d8576" stroke-opacity=".13"/></pattern>
<pattern id="shade" width="7" height="7" patternUnits="userSpaceOnUse" patternTransform="rotate(28)"><path d="M0 0V7" stroke="#262522" stroke-width=".8"/></pattern>
<style>
text{font-family:Georgia,serif;fill:#262522}.small{font-family:'Courier New',monospace;font-size:12px}.line{fill:none;stroke:#262522;stroke-width:2.5;stroke-linecap:round;stroke-linejoin:round}
#eye{animation:eye 12s infinite}#lid{animation:blink 6s infinite;transform-origin:591px 208px}#jaw{animation:jaw 12s infinite;transform-origin:586px 315px}
#food{animation:food 12s infinite;transform-origin:300px 384px}#arm{animation:arm 12s infinite;transform-origin:611px 378px}#bug{animation:bug 12s infinite}#breath{animation:breathe 4s ease-in-out infinite;transform-origin:630px 415px}
#sign{animation:swing 8s ease-in-out infinite;transform-origin:904px 363px}
@keyframes food{0%,12%{transform:translate(0,0) rotate(-8deg);opacity:1}25%{transform:translate(65px,-90px) rotate(12deg);opacity:1}42%{transform:translate(228px,-99px) rotate(-14deg);opacity:1}49%{transform:translate(245px,-68px) scale(.75);opacity:1}54%,95%{transform:translate(275px,-65px) scale(.2);opacity:0}100%{opacity:0}}
@keyframes arm{0%,10%,95%,100%{transform:rotate(0deg)}25%{transform:rotate(20deg)}42%,55%{transform:scale(.35,.9) rotate(20deg)}68%{transform:rotate(-8deg)}}
@keyframes jaw{0%,30%,65%,100%{transform:rotate(0deg)}40%,52%{transform:rotate(24deg)}58%{transform:rotate(-4deg)}}
@keyframes eye{0%,15%,78%,100%{transform:translate(0,0)}25%,48%{transform:translate(-10px,9px)}62%{transform:translate(5px,0)}}
@keyframes blink{0%,43%,48%,100%{transform:scaleY(1)}45%{transform:scaleY(.06)}}
@keyframes bug{0%,65%{opacity:0;transform:translate(0,0)}66%{opacity:1;transform:translate(0,0)}74%{opacity:1;transform:translate(132px,34px) rotate(75deg)}85%,100%{opacity:1;transform:translate(206px,89px) rotate(180deg)}}
@keyframes breathe{50%{transform:scale(1.014,1.024)}}
@keyframes swing{50%{transform:rotate(4deg)}}
@keyframes startle{20%{transform:translate(-7px,-17px) rotate(-2deg)}40%{transform:translate(8px,-12px) rotate(2deg)}60%{transform:translate(-4px,-9px)}}
.startled{animation:startle .65s!important}
@media(prefers-reduced-motion:reduce){*{animation:none!important}}
</style></defs>
<rect width="1040" height="660" fill="#eee9dd"/><rect width="1040" height="660" fill="url(#paper)"/>
<path d="M29 35Q502 27 1011 39L1007 624Q510 637 31 621Z" fill="none" stroke="#c5beaf"/>
<text x="59" y="86" font-size="47" font-style="italic" letter-spacing="-2">afterburnerr</text>
<path d="M62 98q120 5 257-3" fill="none" stroke="#262522" stroke-width="1.5"/>
<text x="64" y="120" class="small" fill="#746d60">здесь кто-то живёт.</text>
<text x="785" y="80" class="small">не кормить после релиза</text>
<path d="M956 98q-23 25-34 54m-5-16 5 17 16-10" class="line" stroke-width="1"/>
<!-- The inhabited README: a dented body, one stalk-eye, two improbable feet. -->
<g id="creature">
<g id="breath">
<path d="M586 267C563 213 610 165 652 178C676 185 671 236 690 255C706 273 712 319 705 355C731 375 718 446 691 460L579 460C537 442 533 410 548 372C522 351 538 310 566 303Z" fill="#eee9dd" stroke="#262522" stroke-width="3"/>
<path d="M650 179C677 188 670 235 690 255C706 273 712 319 705 355C731 375 718 446 691 460L652 460C674 407 660 365 660 321C661 278 640 228 650 179Z" fill="url(#shade)"/>
<g stroke="#262522" fill="none" stroke-width=".7" opacity=".65"><path d="M618 274.0l20 -3"/><path d="M606 275.2l24 -4"/><path d="M602 276.5l20 -8"/><path d="M615 277.8l19 -7"/><path d="M611 279.0l18 -3"/><path d="M600 280.2l23 -4"/><path d="M614 281.5l36 -3"/><path d="M615 282.8l23 -8"/><path d="M618 284.0l34 -6"/><path d="M605 285.2l31 -7"/><path d="M606 286.5l17 -9"/><path d="M603 287.8l30 -5"/><path d="M606 289.0l21 -4"/><path d="M608 290.2l20 -3"/><path d="M610 291.5l20 -5"/><path d="M609 292.8l36 -5"/><path d="M599 294.0l31 -7"/><path d="M601 295.2l29 -3"/><path d="M615 296.5l26 -9"/><path d="M618 297.8l36 -9"/><path d="M609 299.0l35 -4"/><path d="M600 300.2l18 -8"/><path d="M605 301.5l26 -3"/><path d="M605 302.8l20 -6"/><path d="M606 304.0l31 -8"/><path d="M609 305.2l22 -5"/><path d="M609 306.5l23 -8"/><path d="M606 307.8l19 -7"/><path d="M618 309.0l22 -7"/><path d="M605 310.2l22 -6"/><path d="M610 311.5l25 -8"/><path d="M615 312.8l24 -8"/><path d="M608 314.0l18 -4"/><path d="M599 315.2l27 -6"/><path d="M606 316.5l19 -4"/><path d="M616 317.8l27 -4"/><path d="M618 319.0l32 -6"/><path d="M618 320.2l31 -4"/><path d="M606 321.5l21 -4"/><path d="M615 322.8l34 -5"/><path d="M616 324.0l30 -7"/><path d="M610 325.2l28 -4"/><path d="M602 326.5l33 -6"/><path d="M600 327.8l18 -9"/><path d="M601 329.0l21 -8"/><path d="M603 330.2l30 -7"/><path d="M600 331.5l29 -6"/><path d="M617 332.8l31 -7"/><path d="M606 334.0l34 -9"/><path d="M598 335.2l20 -8"/><path d="M615 336.5l25 -9"/><path d="M618 337.8l27 -3"/><path d="M607 339.0l30 -4"/><path d="M612 340.2l17 -8"/><path d="M606 341.5l33 -9"/><path d="M603 342.8l33 -3"/><path d="M618 344.0l26 -9"/><path d="M618 345.2l33 -7"/><path d="M604 346.5l21 -5"/><path d="M603 347.8l34 -9"/><path d="M614 349.0l17 -7"/><path d="M608 350.2l32 -3"/><path d="M601 351.5l28 -9"/><path d="M607 352.8l24 -3"/><path d="M605 354.0l35 -3"/><path d="M600 355.2l32 -9"/><path d="M600 356.5l34 -9"/><path d="M602 357.8l21 -8"/><path d="M613 359.0l34 -4"/><path d="M606 360.2l33 -9"/><path d="M617 361.5l30 -4"/><path d="M615 362.8l23 -8"/><path d="M607 364.0l29 -8"/><path d="M618 365.2l28 -6"/><path d="M614 366.5l31 -3"/><path d="M605 367.8l24 -3"/><path d="M608 369.0l17 -7"/><path d="M615 370.2l24 -7"/><path d="M605 371.5l17 -3"/><path d="M618 372.8l18 -4"/><path d="M600 374.0l18 -9"/><path d="M608 375.2l19 -7"/><path d="M605 376.5l25 -8"/><path d="M613 377.8l23 -7"/><path d="M602 379.0l35 -7"/><path d="M613 380.2l24 -9"/><path d="M613 381.5l30 -4"/><path d="M601 382.8l20 -8"/><path d="M611 384.0l28 -6"/><path d="M611 385.2l31 -9"/><path d="M599 386.5l20 -3"/><path d="M610 387.8l27 -9"/></g>
<path d="M573 432q-13 34-7 57l-40 17q-13 12 37 9l30-7 7-66M667 439q19 25 11 57l24 8q20 18-13 12l-38-4-12-53" fill="#eee9dd" stroke="#262522" stroke-width="3"/>
<path d="M587 257Q552 228 571 200Q583 184 610 193" fill="none" stroke="#262522" stroke-width="20"/>
<path d="M587 257Q552 228 571 200Q583 184 610 193" fill="none" stroke="#eee9dd" stroke-width="14"/>
<g id="lid"><ellipse cx="591" cy="208" rx="31" ry="29" fill="#eee9dd" stroke="#262522" stroke-width="3"/>
<ellipse cx="584" cy="206" rx="22" ry="23" fill="white" stroke="#262522" stroke-width="1.5"/>
<g id="eye"><ellipse cx="578" cy="207" rx="8" ry="13" fill="#262522"/><circle cx="576" cy="202" r="2.5" fill="white"/></g></g>
<path d="M565 279Q532 289 529 306L609 334 624 307Z" fill="#262522"/>
<path d="M537 295l8 17 9-12 8 16 9-12 9 18 8-13 9 16 8-12" fill="#eee9dd"/>
<g id="jaw"><path d="M530 312Q542 353 587 355L624 331 605 319Z" fill="#eee9dd" stroke="#262522" stroke-width="3"/><path d="M542 322l9-9 8 16 11-11 7 16 11-11 7 16" fill="#262522"/>
<path d="M546 339q20 16 49 1" class="line" stroke-width="1"/></g>
<g id="arm"><path d="M611 378C546 380 470 390 340 397" fill="none" stroke="#262522" stroke-width="12"/><path d="M611 378C546 380 470 390 340 397" fill="none" stroke="#eee9dd" stroke-width="7"/>
<path d="M341 395l-17-12-12 6m29 6-23 0-11 11m34-11-20 12 1 10" class="line"/></g>
</g>
</g>
<!-- Repository food, stacked like discarded paper packages. -->
<g transform="translate(127 405) rotate(-6)"><path d="M0 0h178l-4 58H-3Z" fill="#d4cbb9" stroke="#262522" stroke-width="2"/><path d="M8 9h151m-7 9H13" stroke="#aaa08b"/><text x="16" y="39" font-size="22">TownyRaids</text></g>
<g transform="translate(152 461) rotate(4)"><path d="M0 0h208l-4 36H-3Z" fill="#eee9dd" stroke="#262522" stroke-width="2"/><text x="10" y="26" font-size="17">FreeDeepSeekAPI</text></g>
<g transform="translate(131 498) rotate(-2)"><path d="M0 0h233l-4 31H-3Z" fill="#ded6c7" stroke="#262522" stroke-width="2"/><text x="10" y="22" font-size="15">warehouse-dashboards</text></g>
<g id="food"><path d="M251 365l99-3 4 37-97 3Z" fill="#ec5435" stroke="#262522" stroke-width="2"/><path d="M261 373h82m-79 21 76-2" stroke="#262522" stroke-width=".7"/><text x="271" y="390" font-size="20">aftsync</text></g>
<!-- Spat out bug follows an arc, then becomes part of the floor. -->
<g id="bug" transform-origin="531px 322px"><ellipse cx="531" cy="322" rx="8" ry="5" fill="#262522"/><path d="M526 318l-4-6m9 5v-8m5 10 6-6m-16 13-5 5m10-5v9m6-10 6 5" stroke="#262522" stroke-width="1.5"/></g>
<path d="M78 533q135-9 272 0m155 1q130-7 223-1m41 0q122 3 199-6" fill="none" stroke="#262522" stroke-width="1.5"/>
<g id="sign"><path d="M903 358l-8 169" stroke="#262522" stroke-width="4"/><path d="M802 360l199 11-3 65-200-12Z" fill="#eee9dd" stroke="#262522" stroke-width="2"/>
<text x="819" y="390" font-size="17" transform="rotate(3 819 390)">оно иногда работает.</text><text x="814" y="413" class="small" transform="rotate(3 814 413)">причина неизвестна</text></g>
<!-- Little details reward a second look. -->
<g transform="translate(406 512) rotate(-13)"><path d="M0 0h25v21H0Z" fill="#eee9dd" stroke="#262522"/><text x="4" y="15" class="small">404</text></g>
<path d="M775 168q8-13 17-3l-2 15-11 1Zm8-1v-18q3-14 12-8" class="line" stroke-width="1"/>
<text x="76" y="586" font-size="16" font-style="italic">Go, Python, TypeScript, Java. Всё идёт в одну пасть.</text>
<text x="954" y="590" class="small" text-anchor="end">рис. 01 / местная фауна</text>
</svg>